<svg width="69" height="68" viewBox="0 0 69 68" fill="none" xmlns="http://www.w3.org/2000/svg">
<path d="M67.6585 14.7946L41.2961 0.318762C40.9 0.101347 40.4197 0.101347 40.0236 0.318762L30.0871 5.77478C29.8774 5.83004 29.6817 5.93539 29.5196 6.0867L13.6617 14.7946C13.2388 15.0265 12.9759 15.4706 12.9759 15.9535V33.4613C10.3008 34.2979 7.84936 35.7733 5.81104 37.8122C0.498067 43.1246 -0.856513 51.2273 2.44034 57.9744C2.76052 58.6303 3.5522 58.9024 4.20806 58.5817C4.86443 58.261 5.13607 57.4694 4.81589 56.8135C2.0148 51.0807 3.16591 44.1962 7.68049 39.6816C10.5038 36.8584 14.2572 35.3034 18.2496 35.3034C22.2421 35.3034 25.9955 36.8584 28.8188 39.6816C31.6415 42.5044 33.1965 46.2578 33.1965 50.2503C33.1965 54.2427 31.6415 57.9961 28.8182 60.8194C24.3037 65.334 17.4192 66.4851 11.6864 63.684C11.0305 63.3633 10.2389 63.6355 9.91868 64.2913C9.59798 64.9477 9.86962 65.7394 10.526 66.0596C12.9837 67.2608 15.6205 67.8443 18.2383 67.8443C22.805 67.8438 27.3108 66.0663 30.6882 62.6889C32.237 61.1401 33.4609 59.3533 34.3269 57.411L40.0236 60.539C40.2219 60.648 40.4409 60.7022 40.6599 60.7022C40.8788 60.7022 41.0983 60.648 41.2961 60.539L67.6585 46.0636C68.0815 45.8312 68.3443 45.3871 68.3443 44.9048V35.7171C68.3443 34.9868 67.7525 34.395 67.0223 34.395C66.292 34.395 65.7002 34.9868 65.7002 35.7171V44.1224L41.986 57.144V31.2092L49.8124 26.9115V33.7242C49.8124 34.1921 50.0593 34.6248 50.4616 34.8624C50.6692 34.9848 50.9016 35.0462 51.1345 35.0462C51.3534 35.0462 51.5729 34.992 51.7717 34.8825L57.4209 31.7731C57.8433 31.5407 58.1052 31.0971 58.1052 30.6153V22.3577L65.7002 18.1876V25.1412C65.7002 25.8714 66.292 26.4633 67.0223 26.4633C67.7525 26.4633 68.3443 25.8714 68.3443 25.1412V15.9535C68.3443 15.4712 68.0815 15.0265 67.6585 14.7946ZM40.6599 2.98558L64.2754 15.9535L56.826 20.0441L33.2104 7.07617L40.6599 2.98558ZM40.6599 28.9209L17.0443 15.9535L24.7669 11.7126L48.383 24.68L40.6599 28.9209ZM51.1293 23.1721L27.5138 10.2047L30.4636 8.58465L54.0796 21.5521L51.1293 23.1721ZM30.6882 37.8122C27.3655 34.4895 22.9481 32.6598 18.2496 32.6598C17.3609 32.6598 16.4829 32.7254 15.62 32.854V18.1876L39.3425 31.2138V57.1487L35.225 54.8878C35.6304 53.3953 35.8401 51.8388 35.8401 50.2503C35.8401 45.5518 34.0104 41.1343 30.6882 37.8122ZM55.4616 29.834L52.4565 31.4881V25.4598L55.4616 23.8099V29.834Z" fill="#70908B"/>
<path d="M67.0222 29.1006C66.6747 29.1006 66.3333 29.2421 66.0875 29.4879C65.8417 29.7337 65.7002 30.0746 65.7002 30.4226C65.7002 30.7702 65.8417 31.111 66.0875 31.3568C66.3333 31.6032 66.6747 31.7442 67.0222 31.7442C67.3698 31.7442 67.7112 31.6032 67.957 31.3568C68.2028 31.111 68.3443 30.7702 68.3443 30.4226C68.3443 30.0746 68.2028 29.7337 67.957 29.4879C67.7112 29.2421 67.3698 29.1006 67.0222 29.1006Z" fill="#70908B"/>
<path d="M13.8043 51.5723C14.1425 51.5723 14.4813 51.4432 14.739 51.1855C15.2554 50.6691 15.2554 49.832 14.739 49.3156L13.8234 48.3994H21.6369C23.5321 48.3994 25.0742 49.9415 25.0742 51.8368C25.0742 53.732 23.5321 55.2741 21.6369 55.2741H17.0071C16.2769 55.2741 15.6851 55.8659 15.6851 56.5961C15.6851 57.3258 16.2769 57.9177 17.0071 57.9177H21.6369C24.99 57.9177 27.7183 55.1899 27.7183 51.8368C27.7183 48.4836 24.99 45.7559 21.6369 45.7559H13.8234L14.739 44.8397C15.2554 44.3233 15.2554 43.4862 14.739 42.9698C14.2231 42.4538 13.386 42.4538 12.8695 42.9698L9.69662 46.1427C9.18072 46.6591 9.18072 47.4962 9.69662 48.0126L12.8695 51.185C13.1277 51.4432 13.466 51.5723 13.8043 51.5723Z" fill="#70908B"/>
<path d="M6.74682 63.0781C6.37086 63.0781 5.99749 62.918 5.73669 62.6076L5.73411 62.6045C5.26417 62.0457 5.33647 61.2122 5.89524 60.7423C6.45401 60.2718 7.28803 60.3441 7.75798 60.9029C8.22741 61.4622 8.15666 62.2972 7.59789 62.7672C7.34949 62.9758 7.04738 63.0781 6.74682 63.0781Z" fill="#70908B"/>
</svg>
