<svg width="60" height="68" viewBox="0 0 60 68" fill="none" xmlns="http://www.w3.org/2000/svg">
<path d="M30 0.0894165C13.566 0.0894165 0.195801 13.4596 0.195801 29.8937C0.195801 31.7149 0.195801 45.8035 0.195801 46.0542C0.195801 49.341 2.86984 52.015 6.15665 52.015H8.48535C9.30556 54.3276 11.5141 55.9889 14.1044 55.9889C17.3913 55.9889 20.0653 53.3149 20.0653 50.0281V33.8675C20.0653 30.5807 17.3913 27.9067 14.1044 27.9067C11.5141 27.9067 9.30556 29.5681 8.48535 31.8806H6.15665C5.46002 31.8806 4.79161 32.0018 4.1697 32.2224V29.8937C4.1697 15.6508 15.7572 4.06331 30 4.06331C44.2429 4.06331 55.8304 15.6508 55.8304 29.8937V32.2224C55.2085 32.0018 54.54 31.8806 53.8434 31.8806H51.5147C50.6945 29.5681 48.4859 27.9067 45.8956 27.9067C42.6088 27.9067 39.9348 30.5807 39.9348 33.8675V50.0281C39.9348 53.3149 42.6088 55.9889 45.8956 55.9889C46.4971 55.9889 47.0779 55.8986 47.6257 55.7321C46.8825 58.1776 44.607 59.9628 41.9217 59.9628H35.6191C34.7989 57.6503 32.5904 55.9889 30 55.9889C26.7132 55.9889 24.0392 58.6629 24.0392 61.9498C24.0392 65.2366 26.7132 67.9106 30 67.9106C32.5904 67.9106 34.7989 66.2493 35.6191 63.9367H41.9217C47.3997 63.9367 51.8565 59.48 51.8565 54.002V52.015H53.8434C57.1302 52.015 59.8043 49.341 59.8043 46.0542C59.8043 45.8073 59.8043 31.7134 59.8043 29.8937C59.8043 13.4596 46.4341 0.0894165 30 0.0894165ZM12.1175 33.8675C12.1175 32.7719 13.0088 31.8806 14.1044 31.8806C15.2 31.8806 16.0914 32.7719 16.0914 33.8675V50.0281C16.0914 51.1237 15.2 52.015 14.1044 52.015C13.0088 52.015 12.1175 51.1237 12.1175 50.0281V33.8675ZM6.15665 35.8545H8.1436V48.0411H6.15665C5.06104 48.0411 4.1697 47.1498 4.1697 46.0542V37.8414C4.1697 36.7458 5.06104 35.8545 6.15665 35.8545ZM30 63.9367C28.9044 63.9367 28.0131 63.0454 28.0131 61.9498C28.0131 60.8542 28.9044 59.9628 30 59.9628C31.0956 59.9628 31.987 60.8542 31.987 61.9498C31.987 63.0454 31.0956 63.9367 30 63.9367ZM47.8826 50.0281C47.8826 51.1237 46.9912 52.015 45.8956 52.015C44.8 52.015 43.9087 51.1237 43.9087 50.0281V33.8675C43.9087 32.7719 44.8 31.8806 45.8956 31.8806C46.9912 31.8806 47.8826 32.7719 47.8826 33.8675V50.0281ZM55.8304 46.0542C55.8304 47.1498 54.939 48.0411 53.8434 48.0411H51.8565V35.8545H53.8434C54.939 35.8545 55.8304 36.7458 55.8304 37.8414V46.0542Z" fill="#70908B"/>
</svg>
